:SAMPLES-PER-SECOND 30
:FULLY-SPECIFIED
:DEGREES
128
root  -1.9926 37.9118 -24.4487 172.068 -84.4437 176.004
RightUpLeg  13.7 -7.4463 -10.4405
RightLeg  32.8244 2.15953 1.2326
RightFoot  -24.9558 0.973884 9.53601
RightToes  0.000482159 0.542163 -0.142577
Spine  13.5478 1.05871 3.59087
Spine1  14.4411 3.82634 -6.34895
HEad  18.9499 -1.189 0.828593
LeftShoulder1  6.97941 -13.2466 -35.5922
LeftArm  -6.2796 -19.4457 -39.3418
LeftForeArm  8.54932 -41.83 -9.46329
LeftHand  -0.25398 0.0180481 5.50724
RightShoulder  5.53811 10.9715 32.3135
RightArm  2.27222 12.7874 41.8553
RightForeArm  -46.369 43.1424 12.7404
RightHand  -0.499595 -1.69046 -15.4369
LeftUpLeg  -14.1822 7.63539 7.72063
LeftLeg  1.71365 11.8361 -4.4399
LeftFoot  2.07988 1.17813 -10.0997
LeftToes  1.06247e-005 4.65854e-005 -8.18501e-006
129
root  0.0220253 37.8179 -24.9418 145.905 -86.0973 -157.664
RightUpLeg  10.5475 -10.0016 -6.36639
RightLeg  33.3806 -1.17662 -1.11666
RightFoot  -26.7174 0.526036 5.14484
RightToes  0.000482159 0.542163 -0.142577
Spine  14.6372 0.129992 6.1681
Spine1  14.9773 3.10994 -6.12048
HEad  18.0588 -0.125336 -0.503302
LeftShoulder1  6.79198 -13.1545 -34.7156
LeftArm  -5.82717 -22.9253 -40.5477
LeftForeArm  7.41244 -39.602 -8.79914
LeftHand  -0.25398 0.0180481 5.50724
RightShoulder  5.40414 10.9396 31.4664
RightArm  2.31761 16.4403 41.7247
RightForeArm  -46.7784 41.4476 12.0934
RightHand  -0.461549 -1.70714 -14.216
LeftUpLeg  -14.8345 7.6792 8.89899
LeftLeg  -2.44249 12.8357 -4.97748
LeftFoot  -0.0313853 0.957335 -9.66645
LeftToes  1.06247e-005 4.65854e-005 -8.18501e-006
130
root  2.02642 37.8338 -25.4174 103.047 -87.1157 -115.024
RightUpLeg  6.42003 -12.0642 -3.51388
RightLeg  35.9826 -3.1308 -2.69951
RightFoot  -24.8883 0.24983 3.54665
RightToes  0.000482159 0.542163 -0.142577
Spine  16.4573 -0.474469 5.77598
Spine1  15.8541 1.62535 -3.56936
HEad  16.8117 0.876008 -1.61113
LeftShoulder1  6.84213 -13.4996 -34.1891
LeftArm  -6.70411 -25.5065 -41.4983
LeftForeArm  6.91739 -37.9777 -8.32627
LeftHand  -0.25398 0.0180481 5.50724
RightShoulder  5.27585 10.9233 30.6117
RightArm  1.94857 20.3454 41.4749
RightForeArm  -46.7911 39.6544 11.4387
RightHand  -0.315346 -2.57629 -12.4763
LeftUpLeg  -15.9736 7.9674 9.07445
LeftLeg  -2.36804 13.7844 -5.39404
LeftFoot  -0.674867 0.948443 -10.0949
LeftToes  1.06247e-005 4.65854e-005 -8.18501e-006
131
root  3.90887 38.0208 -25.8963 52.548 -86.8701 -64.5161
RightUpLeg  3.11537 -14.4186 -2.20138
RightLeg  36.483 -3.68629 -3.19219
RightFoot  -22.445 0.15964 3.20328
RightToes  0.000482159 0.542163 -0.142577
Spine  18.2995 -0.643408 3.56942
Spine1  16.4734 0.117171 -0.459256
HEad  16.4145 1.08616 -1.61055
LeftShoulder1  6.98445 -14.0571 -33.7247
LeftArm  -7.308 -27.4468 -42.1891
LeftForeArm  6.11086 -36.0608 -7.81187
LeftHand  -0.25398 0.0180481 5.50724
RightShoulder  5.23641 10.9829 30.1818
RightArm  1.07939 23.1297 41.1876
RightForeArm  -46.8225 38.0583 10.8885
RightHand  -0.211509 -3.47605 -11.7469
LeftUpLeg  -17.9963 9.54548 7.54213
LeftLeg  2.74121 11.9565 -4.18482
LeftFoot  -0.495892 0.982642 -10.3033
LeftToes  1.06247e-005 4.65854e-005 -8.18501e-006
132
root  5.60735 38.3395 -26.2849 28.1104 -85.4578 -39.6599
RightUpLeg  0.72322 -17.3148 -1.48221
RightLeg  34.5832 -3.66952 -2.98404
RightFoot  -20.0518 -0.00438762 1.6748
RightToes  0.000482159 0.542163 -0.142577
Spine  19.6703 -0.639035 2.4772
Spine1  16.2982 -0.649024 1.284
HEad  17.0922 0.228738 -0.678694
LeftShoulder1  7.10377 -14.5131 -33.3803
LeftArm  -6.059 -29.4042 -42.6416
LeftForeArm  4.19483 -33.2846 -7.15374
LeftHand  -0.25398 0.0180481 5.50724
RightShoulder  5.23088 10.977 30.1582
RightArm  -0.127439 24.1709 40.8649
RightForeArm  -46.1917 36.9892 10.5195
RightHand  -0.16055 -3.95845 -11.2668
LeftUpLeg  -20.3713 14.4263 4.13087
LeftLeg  10.7497 4.56328 -0.814504
LeftFoot  -0.884959 0.905444 -9.81421
LeftToes  1.06247e-005 4.65854e-005 -8.18501e-006
133
root  7.19537 38.7181 -26.5292 20.3492 -84.524 -31.05
RightUpLeg  -1.68211 -19.9863 -0.960907
RightLeg  31.8424 -3.16424 -2.37578
RightFoot  -16.66 -0.127033 -0.298935
RightToes  0.000482159 0.542163 -0.142577
Spine  20.6045 -0.620856 2.88257
Spine1  15.7364 -0.555039 1.26985
HEad  17.8929 -1.14773 0.0477919
LeftShoulder1  7.19926 -14.7797 -33.3268
LeftArm  -3.39966 -31.33 -42.9863
LeftForeArm  1.8718 -30.4697 -6.55022
LeftHand  -0.25398 0.0180481 5.50724
RightShoulder  5.16976 10.819 30.1296
RightArm  -1.33048 23.9812 40.4364
RightForeArm  -44.4117 36.6152 10.3519
RightHand  -0.134625 -4.0712 -9.82963
LeftUpLeg  -21.4651 14.125 2.77779
LeftLeg  18.1389 2.38315 1.48171
LeftFoot  -1.99566 0.724412 -8.699
LeftToes  1.06247e-005 4.65854e-005 -8.18501e-006
134
root  8.72066 39.0743 -26.6579 12.359 -84.2244 -21.8784
RightUpLeg  -4.38803 -21.7265 -0.861167
RightLeg  29.1091 -2.16899 -1.55515
RightFoot  -12.6788 -0.101449 -0.999212
RightToes  0.000482159 0.542163 -0.142577
Spine  21.2819 -0.560999 3.2225
Spine1  15.3116 -0.216412 0.692364
HEad  17.9733 -2.05376 -0.252096
LeftShoulder1  7.28498 -14.9236 -33.483
LeftArm  -1.437 -32.526 -43.3989
LeftForeArm  0.7363 -28.873 -6.21715
LeftHand  -0.25398 0.0180481 5.50724
RightShoulder  5.08152 10.6808 29.8558
RightArm  -2.25226 23.3752 39.7722
RightForeArm  -42.4889 37.1229 10.4626
RightHand  -0.123689 -4.00713 -8.43855
LeftUpLeg  -21.4365 10.5541 2.76553
LeftLeg  25.1385 5.1469 2.95965
LeftFoot  -3.29673 0.546472 -7.48435
LeftToes  1.06247e-005 4.65854e-005 -8.18501e-006
135
root  10.1845 39.3394 -26.729 3.2294 -83.81 -11.4495
RightUpLeg  -7.03619 -23.2427 -0.965018
RightLeg  26.3385 -0.907408 -0.770951
RightFoot  -9.28626 -0.0463173 -0.917695
RightToes  0.000482159 0.542163 -0.142577
Spine  21.7392 -0.567009 2.98311
Spine1  14.9668 -0.244275 0.708629
HEad  17.4983 -2.01631 -1.37616
LeftShoulder1  7.32128 -14.964 -33.5921
LeftArm  -1.27756 -32.6699 -43.9365
LeftForeArm  1.20526 -28.7208 -6.15635
LeftHand  -0.25398 0.0180481 5.50724
RightShoulder  5.04775 10.7194 29.5146
RightArm  -2.89212 22.7241 38.8406
RightForeArm  -41.6711 38.6179 10.9377
RightHand  -0.124843 -4.04873 -8.76903
LeftUpLeg  -21.1029 8.6159 1.81401
LeftLeg  31.9509 6.5414 4.7165
LeftFoot  -4.35362 0.413332 -6.33988
LeftToes  1.06247e-005 4.65854e-005 -8.18501e-006
